<?xml version="1.0" standalone="no"?><!-- Generator: Gravit.io --><svg xmlns="http://www.w3.org/2000/svg" xmlns:xlink="http://www.w3.org/1999/xlink" style="isolation:isolate" viewBox="-63.2 1.2 2827.8 442.2"><path d=" M -63.2 315 L -63.2 315 L -63.2 129 L -63.2 129 Q -63.2 63.6 -28.1 32.4 L -28.1 32.4 L -28.1 32.4 Q 7 1.2 62.8 1.2 L 62.8 1.2 L 62.8 1.2 Q 119.8 1.2 153.1 30.3 L 153.1 30.3 L 153.1 30.3 Q 186.4 59.4 186.4 101.4 L 186.4 101.4 L 186.4 101.4 Q 186.4 115.8 181.9 120.6 L 181.9 120.6 L 181.9 120.6 Q 177.4 125.4 166.6 125.4 L 166.6 125.4 L 166.6 125.4 Q 148 125.4 146.8 110.4 L 146.8 110.4 L 146.8 110.4 Q 146.2 101.4 144.4 93 L 144.4 93 L 144.4 93 Q 142.6 84.6 137.2 74.1 L 137.2 74.1 L 137.2 74.1 Q 131.8 63.6 123.1 55.8 L 123.1 55.8 L 123.1 55.8 Q 114.4 48 98.8 42.9 L 98.8 42.9 L 98.8 42.9 Q 83.2 37.8 62.8 37.8 L 62.8 37.8 L 62.8 37.8 Q -23.6 37.8 -23.6 129 L -23.6 129 L -23.6 315 L -23.6 315 Q -23.6 406.8 65.2 406.8 L 65.2 406.8 L 65.2 406.8 Q 90.4 406.8 107.2 399.9 L 107.2 399.9 L 107.2 399.9 Q 124 393 131.8 379.8 L 131.8 379.8 L 131.8 379.8 Q 139.6 366.6 142.3 357.3 L 142.3 357.3 L 142.3 357.3 Q 145 348 146.8 333 L 146.8 333 L 146.8 333 Q 148.6 317.4 166.6 317.4 L 166.6 317.4 L 166.6 317.4 Q 177.4 317.4 181.9 322.5 L 181.9 322.5 L 181.9 322.5 Q 186.4 327.6 186.4 342 L 186.4 342 L 186.4 342 Q 186.4 384.6 152.5 414 L 152.5 414 L 152.5 414 Q 118.6 443.4 61 443.4 L 61 443.4 L 61 443.4 Q 5.8 443.4 -28.7 412.2 L -28.7 412.2 L -28.7 412.2 Q -63.2 381 -63.2 315 Z  M 250.6 315 L 250.6 315 L 250.6 129 L 250.6 129 Q 250.6 63 284.5 32.1 L 284.5 32.1 L 284.5 32.1 Q 318.4 1.2 375.4 1.2 L 375.4 1.2 L 375.4 1.2 Q 432.4 1.2 466.3 32.1 L 466.3 32.1 L 466.3 32.1 Q 500.2 63 500.2 129 L 500.2 129 L 500.2 315 L 500.2 315 Q 500.2 381.6 466.3 412.5 L 466.3 412.5 L 466.3 412.5 Q 432.4 443.4 375.4 443.4 L 375.4 443.4 L 375.4 443.4 Q 318.4 443.4 284.5 412.5 L 284.5 412.5 L 284.5 412.5 Q 250.6 381.6 250.6 315 Z  M 290.2 129 L 290.2 315 L 290.2 315 Q 290.2 406.8 375.4 406.8 L 375.4 406.8 L 375.4 406.8 Q 460.6 406.8 460.6 315 L 460.6 315 L 460.6 129 L 460.6 129 Q 460.6 37.8 375.4 37.8 L 375.4 37.8 L 375.4 37.8 Q 290.2 37.8 290.2 129 L 290.2 129 L 290.2 129 Z  M 586.6 424.2 L 586.6 424.2 L 586.6 16.2 L 586.6 16.2 Q 586.6 1.2 606.4 1.2 L 606.4 1.2 L 606.4 1.2 Q 623.2 1.2 637.6 28.8 L 637.6 28.8 L 799.6 348 L 799.6 15.6 L 799.6 15.6 Q 799.6 1.2 819.4 1.2 L 819.4 1.2 L 819.4 1.2 Q 839.2 1.2 839.2 15.6 L 839.2 15.6 L 839.2 424.2 L 839.2 424.2 Q 839.2 431.4 833.2 435.6 L 833.2 435.6 L 833.2 435.6 Q 827.2 439.8 819.4 439.8 L 819.4 439.8 L 819.4 439.8 Q 804.4 439.8 793 417 L 793 417 L 626.2 92.4 L 626.2 424.2 L 626.2 424.2 Q 626.2 431.4 620.2 435.6 L 620.2 435.6 L 620.2 435.6 Q 614.2 439.8 606.4 439.8 L 606.4 439.8 L 606.4 439.8 Q 598 439.8 592.3 435.6 L 592.3 435.6 L 592.3 435.6 Q 586.6 431.4 586.6 424.2 Z  M 930.4 424.2 L 930.4 424.2 L 930.4 16.2 L 930.4 16.2 Q 930.4 1.2 950.2 1.2 L 950.2 1.2 L 950.2 1.2 Q 967 1.2 981.4 28.8 L 981.4 28.8 L 1143.4 348 L 1143.4 15.6 L 1143.4 15.6 Q 1143.4 1.2 1163.2 1.2 L 1163.2 1.2 L 1163.2 1.2 Q 1183 1.2 1183 15.6 L 1183 15.6 L 1183 424.2 L 1183 424.2 Q 1183 431.4 1177 435.6 L 1177 435.6 L 1177 435.6 Q 1171 439.8 1163.2 439.8 L 1163.2 439.8 L 1163.2 439.8 Q 1148.2 439.8 1136.8 417 L 1136.8 417 L 970 92.4 L 970 424.2 L 970 424.2 Q 970 431.4 964 435.6 L 964 435.6 L 964 435.6 Q 958 439.8 950.2 439.8 L 950.2 439.8 L 950.2 439.8 Q 941.8 439.8 936.1 435.6 L 936.1 435.6 L 936.1 435.6 Q 930.4 431.4 930.4 424.2 Z  M 1274.2 424.2 L 1274.2 424.2 L 1274.2 16.2 L 1274.2 16.2 Q 1274.2 9 1279.6 5.1 L 1279.6 5.1 L 1279.6 5.1 Q 1285 1.2 1292.2 1.2 L 1292.2 1.2 L 1505.8 1.2 L 1505.8 1.2 Q 1520.8 1.2 1520.8 18.6 L 1520.8 18.6 L 1520.8 18.6 Q 1520.8 26.4 1516.9 32.1 L 1516.9 32.1 L 1516.9 32.1 Q 1513 37.8 1505.8 37.8 L 1505.8 37.8 L 1313.8 37.8 L 1313.8 202.8 L 1408 202.8 L 1408 202.8 Q 1415.2 202.8 1419.1 207.9 L 1419.1 207.9 L 1419.1 207.9 Q 1423 213 1423 220.8 L 1423 220.8 L 1423 220.8 Q 1423 237 1408 237 L 1408 237 L 1313.8 237 L 1313.8 403.2 L 1505.8 403.2 L 1505.8 403.2 Q 1512.4 403.2 1516.6 408.6 L 1516.6 408.6 L 1516.6 408.6 Q 1520.8 414 1520.8 421.8 L 1520.8 421.8 L 1520.8 421.8 Q 1520.8 439.8 1505.8 439.8 L 1505.8 439.8 L 1292.2 439.8 L 1292.2 439.8 Q 1285 439.8 1279.6 435.6 L 1279.6 435.6 L 1279.6 435.6 Q 1274.2 431.4 1274.2 424.2 Z  M 1574.2 315 L 1574.2 315 L 1574.2 129 L 1574.2 129 Q 1574.2 63.6 1609.3 32.4 L 1609.3 32.4 L 1609.3 32.4 Q 1644.4 1.2 1700.2 1.2 L 1700.2 1.2 L 1700.2 1.2 Q 1757.2 1.2 1790.5 30.3 L 1790.5 30.3 L 1790.5 30.3 Q 1823.8 59.4 1823.8 101.4 L 1823.8 101.4 L 1823.8 101.4 Q 1823.8 115.8 1819.3 120.6 L 1819.3 120.6 L 1819.3 120.6 Q 1814.8 125.4 1804 125.4 L 1804 125.4 L 1804 125.4 Q 1785.4 125.4 1784.2 110.4 L 1784.2 110.4 L 1784.2 110.4 Q 1783.6 101.4 1781.8 93 L 1781.8 93 L 1781.8 93 Q 1780 84.6 1774.6 74.1 L 1774.6 74.1 L 1774.6 74.1 Q 1769.2 63.6 1760.5 55.8 L 1760.5 55.8 L 1760.5 55.8 Q 1751.8 48 1736.2 42.9 L 1736.2 42.9 L 1736.2 42.9 Q 1720.6 37.8 1700.2 37.8 L 1700.2 37.8 L 1700.2 37.8 Q 1613.8 37.8 1613.8 129 L 1613.8 129 L 1613.8 315 L 1613.8 315 Q 1613.8 406.8 1702.6 406.8 L 1702.6 406.8 L 1702.6 406.8 Q 1727.8 406.8 1744.6 399.9 L 1744.6 399.9 L 1744.6 399.9 Q 1761.4 393 1769.2 379.8 L 1769.2 379.8 L 1769.2 379.8 Q 1777 366.6 1779.7 357.3 L 1779.7 357.3 L 1779.7 357.3 Q 1782.4 348 1784.2 333 L 1784.2 333 L 1784.2 333 Q 1786 317.4 1804 317.4 L 1804 317.4 L 1804 317.4 Q 1814.8 317.4 1819.3 322.5 L 1819.3 322.5 L 1819.3 322.5 Q 1823.8 327.6 1823.8 342 L 1823.8 342 L 1823.8 342 Q 1823.8 384.6 1789.9 414 L 1789.9 414 L 1789.9 414 Q 1756 443.4 1698.4 443.4 L 1698.4 443.4 L 1698.4 443.4 Q 1643.2 443.4 1608.7 412.2 L 1608.7 412.2 L 1608.7 412.2 Q 1574.2 381 1574.2 315 Z  M 1856.2 19.8 L 1856.2 19.8 L 1856.2 19.8 Q 1856.2 12.6 1860.1 6.9 L 1860.1 6.9 L 1860.1 6.9 Q 1864 1.2 1871.2 1.2 L 1871.2 1.2 L 2111.8 1.2 L 2111.8 1.2 Q 2119 1.2 2122.9 6.6 L 2122.9 6.6 L 2122.9 6.6 Q 2126.8 12 2126.8 19.2 L 2126.8 19.2 L 2126.8 19.2 Q 2126.8 27 2122.9 32.7 L 2122.9 32.7 L 2122.9 32.7 Q 2119 38.4 2111.8 38.4 L 2111.8 38.4 L 2011.6 38.4 L 2011.6 424.2 L 2011.6 424.2 Q 2011.6 431.4 2005.6 435.6 L 2005.6 435.6 L 2005.6 435.6 Q 1999.6 439.8 1991.8 439.8 L 1991.8 439.8 L 1991.8 439.8 Q 1983.4 439.8 1977.7 435.6 L 1977.7 435.6 L 1977.7 435.6 Q 1972 431.4 1972 424.2 L 1972 424.2 L 1972 38.4 L 1871.2 38.4 L 1871.2 38.4 Q 1864.6 38.4 1860.4 33 L 1860.4 33 L 1860.4 33 Q 1856.2 27.6 1856.2 19.8 Z  M 2176.6 315 L 2176.6 315 L 2176.6 129 L 2176.6 129 Q 2176.6 63 2210.5 32.1 L 2210.5 32.1 L 2210.5 32.1 Q 2244.4 1.2 2301.4 1.2 L 2301.4 1.2 L 2301.4 1.2 Q 2358.4 1.2 2392.3 32.1 L 2392.3 32.1 L 2392.3 32.1 Q 2426.2 63 2426.2 129 L 2426.2 129 L 2426.2 315 L 2426.2 315 Q 2426.2 381.6 2392.3 412.5 L 2392.3 412.5 L 2392.3 412.5 Q 2358.4 443.4 2301.4 443.4 L 2301.4 443.4 L 2301.4 443.4 Q 2244.4 443.4 2210.5 412.5 L 2210.5 412.5 L 2210.5 412.5 Q 2176.6 381.6 2176.6 315 Z  M 2216.2 129 L 2216.2 315 L 2216.2 315 Q 2216.2 406.8 2301.4 406.8 L 2301.4 406.8 L 2301.4 406.8 Q 2386.6 406.8 2386.6 315 L 2386.6 315 L 2386.6 129 L 2386.6 129 Q 2386.6 37.8 2301.4 37.8 L 2301.4 37.8 L 2301.4 37.8 Q 2216.2 37.8 2216.2 129 L 2216.2 129 L 2216.2 129 Z  M 2512.6 424.2 L 2512.6 424.2 L 2512.6 15.6 L 2512.6 15.6 Q 2512.6 2.4 2527.6 1.2 L 2527.6 1.2 L 2633.8 1.2 L 2633.8 1.2 Q 2692 1.2 2727.7 28.8 L 2727.7 28.8 L 2727.7 28.8 Q 2763.4 56.4 2763.4 119.4 L 2763.4 119.4 L 2763.4 119.4 Q 2763.4 219 2669.8 235.2 L 2669.8 235.2 L 2762.2 412.8 L 2762.2 412.8 Q 2764.6 415.8 2764.6 420.6 L 2764.6 420.6 L 2764.6 420.6 Q 2764.6 428.4 2757.4 434.7 L 2757.4 434.7 L 2757.4 434.7 Q 2750.2 441 2741.8 441 L 2741.8 441 L 2741.8 441 Q 2731 441 2720.8 420 L 2720.8 420 L 2628.4 240 L 2552.2 240 L 2552.2 424.2 L 2552.2 424.2 Q 2552.2 431.4 2546.2 435.6 L 2546.2 435.6 L 2546.2 435.6 Q 2540.2 439.8 2532.4 439.8 L 2532.4 439.8 L 2532.4 439.8 Q 2524 439.8 2518.3 435.6 L 2518.3 435.6 L 2518.3 435.6 Q 2512.6 431.4 2512.6 424.2 Z  M 2552.2 37.8 L 2552.2 205.8 L 2633.8 205.8 L 2633.8 205.8 Q 2723.8 205.8 2723.8 121.2 L 2723.8 121.2 L 2723.8 121.2 Q 2723.8 37.8 2633.8 37.8 L 2633.8 37.8 L 2552.2 37.8 L 2552.2 37.8 Z " fill-rule="evenodd" fill="rgb(0,0,0)"/></svg>