<svg xmlns="http://www.w3.org/2000/svg" style="isolation:isolate" viewBox="32 1532.6 2253.6 445.8"><path d="M32 1850v-186q0-65.4 35.1-96.6 35.1-31.2 90.9-31.2 57 0 90.3 29.1t33.3 71.1q0 14.4-4.5 19.2-4.5 4.8-15.3 4.8-18.6 0-19.8-15-.6-9-2.4-17.4-1.8-8.4-7.2-18.9-5.4-10.5-14.1-18.3-8.7-7.8-24.3-12.9-15.6-5.1-36-5.1-86.4 0-86.4 91.2v186q0 91.8 88.8 91.8 25.2 0 42-6.9t24.6-20.1q7.8-13.2 10.5-22.5t4.5-24.3q1.8-15.6 19.8-15.6 10.8 0 15.3 5.1t4.5 19.5q0 42.6-33.9 72t-91.5 29.4q-55.2 0-89.7-31.2T32 1850zm318.6 109.2v-408.6q0-13.2 15-14.4h106.2q58.2 0 93.9 27.6t35.7 90.6q0 99.6-93.6 115.8l92.4 177.6q2.4 3 2.4 7.8 0 7.8-7.2 14.1t-15.6 6.3q-10.8 0-21-21l-92.4-180h-76.2v184.2q0 7.2-6 11.4t-13.8 4.2q-8.4 0-14.1-4.2-5.7-4.2-5.7-11.4zm39.6-386.4v168h81.6q90 0 90-84.6 0-83.4-90-83.4h-81.6zM668 1959.2v-408q0-7.2 5.4-11.1 5.4-3.9 12.6-3.9h213.6q15 0 15 17.4 0 7.8-3.9 13.5t-11.1 5.7h-192v165h94.2q7.2 0 11.1 5.1 3.9 5.1 3.9 12.9 0 16.2-15 16.2h-94.2v166.2h192q6.6 0 10.8 5.4 4.2 5.4 4.2 13.2 0 18-15 18H686q-7.2 0-12.6-4.2-5.4-4.2-5.4-11.4zm271.8-1.2q0-3 .6-4.2l125.4-407.4q4.2-13.8 23.4-13.8t24 13.8l124.8 407.4q0 .6.3 1.8.3 1.2.3 1.8 0 7.2-7.8 12.3-7.8 5.1-16.2 5.1-11.4 0-15-10.2l-27.6-92.4h-165.96l-27.84 92.4q-2.4 10.2-15.6 10.2-8.4 0-15.6-4.8-7.2-4.8-7.2-12zm149.4-361.8l-72.855 241.8h145.395l-72.54-241.8zm171-41.4q0-7.2 3.9-12.9t11.1-5.7h240.6q7.2 0 11.1 5.4 3.9 5.4 3.9 12.6 0 7.8-3.9 13.5t-11.1 5.7h-100.2v385.8q0 7.2-6 11.4t-13.8 4.2q-8.4 0-14.1-4.2-5.7-4.2-5.7-11.4v-385.8h-100.8q-6.6 0-10.8-5.4-4.2-5.4-4.2-13.2zm325.2 404.4v-408.6q0-14.4 19.8-14.4t19.8 14.4v408.6q0 7.2-6 11.4t-13.8 4.2q-8.4 0-14.1-4.2-5.7-4.2-5.7-11.4zm97.2-406.2q0-7.2 7.2-12t15.6-4.8q13.2 0 15.6 10.2l111 368.4 110.4-368.4q3.6-10.2 15-10.2 8.4 0 16.2 5.1 7.8 5.1 7.8 12.3 0 .6-.3 1.8-.3 1.2-.3 1.8L1856 1964q-4.2 14.4-24 14.4-19.2 0-23.4-14.4l-125.4-406.8q-.6-1.2-.6-4.2zm356.4 406.2v-408q0-7.2 5.4-11.1 5.4-3.9 12.6-3.9h213.6q15 0 15 17.4 0 7.8-3.9 13.5t-11.1 5.7h-192v165h94.2q7.2 0 11.1 5.1 3.9 5.1 3.9 12.9 0 16.2-15 16.2h-94.2v166.2h192q6.6 0 10.8 5.4 4.2 5.4 4.2 13.2 0 18-15 18H2057q-7.2 0-12.6-4.2-5.4-4.2-5.4-11.4z" fill-rule="evenodd"/></svg>