<?xml version="1.0" standalone="no"?><!-- Generator: Gravit.io --><svg xmlns="http://www.w3.org/2000/svg" xmlns:xlink="http://www.w3.org/1999/xlink" style="isolation:isolate" viewBox="32 1532.6 2253.6 445.8"><path d=" M 32 1850 L 32 1850 L 32 1664 L 32 1664 Q 32 1598.6 67.1 1567.4 L 67.1 1567.4 L 67.1 1567.4 Q 102.2 1536.2 158 1536.2 L 158 1536.2 L 158 1536.2 Q 215 1536.2 248.3 1565.3 L 248.3 1565.3 L 248.3 1565.3 Q 281.6 1594.4 281.6 1636.4 L 281.6 1636.4 L 281.6 1636.4 Q 281.6 1650.8 277.1 1655.6 L 277.1 1655.6 L 277.1 1655.6 Q 272.6 1660.4 261.8 1660.4 L 261.8 1660.4 L 261.8 1660.4 Q 243.2 1660.4 242 1645.4 L 242 1645.4 L 242 1645.4 Q 241.4 1636.4 239.6 1628 L 239.6 1628 L 239.6 1628 Q 237.8 1619.6 232.4 1609.1 L 232.4 1609.1 L 232.4 1609.1 Q 227 1598.6 218.3 1590.8 L 218.3 1590.8 L 218.3 1590.8 Q 209.6 1583 194 1577.9 L 194 1577.9 L 194 1577.9 Q 178.4 1572.8 158 1572.8 L 158 1572.8 L 158 1572.8 Q 71.6 1572.8 71.6 1664 L 71.6 1664 L 71.6 1850 L 71.6 1850 Q 71.6 1941.8 160.4 1941.8 L 160.4 1941.8 L 160.4 1941.8 Q 185.6 1941.8 202.4 1934.9 L 202.4 1934.9 L 202.4 1934.9 Q 219.2 1928 227 1914.8 L 227 1914.8 L 227 1914.8 Q 234.8 1901.6 237.5 1892.3 L 237.5 1892.3 L 237.5 1892.3 Q 240.2 1883 242 1868 L 242 1868 L 242 1868 Q 243.8 1852.4 261.8 1852.4 L 261.8 1852.4 L 261.8 1852.4 Q 272.6 1852.4 277.1 1857.5 L 277.1 1857.5 L 277.1 1857.5 Q 281.6 1862.6 281.6 1877 L 281.6 1877 L 281.6 1877 Q 281.6 1919.6 247.7 1949 L 247.7 1949 L 247.7 1949 Q 213.8 1978.4 156.2 1978.4 L 156.2 1978.4 L 156.2 1978.4 Q 101 1978.4 66.5 1947.2 L 66.5 1947.2 L 66.5 1947.2 Q 32 1916 32 1850 Z  M 350.6 1959.2 L 350.6 1959.2 L 350.6 1550.6 L 350.6 1550.6 Q 350.6 1537.4 365.6 1536.2 L 365.6 1536.2 L 471.8 1536.2 L 471.8 1536.2 Q 530 1536.2 565.7 1563.8 L 565.7 1563.8 L 565.7 1563.8 Q 601.4 1591.4 601.4 1654.4 L 601.4 1654.4 L 601.4 1654.4 Q 601.4 1754 507.8 1770.2 L 507.8 1770.2 L 600.2 1947.8 L 600.2 1947.8 Q 602.6 1950.8 602.6 1955.6 L 602.6 1955.6 L 602.6 1955.6 Q 602.6 1963.4 595.4 1969.7 L 595.4 1969.7 L 595.4 1969.7 Q 588.2 1976 579.8 1976 L 579.8 1976 L 579.8 1976 Q 569 1976 558.8 1955 L 558.8 1955 L 466.4 1775 L 390.2 1775 L 390.2 1959.2 L 390.2 1959.2 Q 390.2 1966.4 384.2 1970.6 L 384.2 1970.6 L 384.2 1970.6 Q 378.2 1974.8 370.4 1974.8 L 370.4 1974.8 L 370.4 1974.8 Q 362 1974.8 356.3 1970.6 L 356.3 1970.6 L 356.3 1970.6 Q 350.6 1966.4 350.6 1959.2 Z  M 390.2 1572.8 L 390.2 1740.8 L 471.8 1740.8 L 471.8 1740.8 Q 561.8 1740.8 561.8 1656.2 L 561.8 1656.2 L 561.8 1656.2 Q 561.8 1572.8 471.8 1572.8 L 471.8 1572.8 L 390.2 1572.8 L 390.2 1572.8 Z  M 668 1959.2 L 668 1959.2 L 668 1551.2 L 668 1551.2 Q 668 1544 673.4 1540.1 L 673.4 1540.1 L 673.4 1540.1 Q 678.8 1536.2 686 1536.2 L 686 1536.2 L 899.6 1536.2 L 899.6 1536.2 Q 914.6 1536.2 914.6 1553.6 L 914.6 1553.6 L 914.6 1553.6 Q 914.6 1561.4 910.7 1567.1 L 910.7 1567.1 L 910.7 1567.1 Q 906.8 1572.8 899.6 1572.8 L 899.6 1572.8 L 707.6 1572.8 L 707.6 1737.8 L 801.8 1737.8 L 801.8 1737.8 Q 809 1737.8 812.9 1742.9 L 812.9 1742.9 L 812.9 1742.9 Q 816.8 1748 816.8 1755.8 L 816.8 1755.8 L 816.8 1755.8 Q 816.8 1772 801.8 1772 L 801.8 1772 L 707.6 1772 L 707.6 1938.2 L 899.6 1938.2 L 899.6 1938.2 Q 906.2 1938.2 910.4 1943.6 L 910.4 1943.6 L 910.4 1943.6 Q 914.6 1949 914.6 1956.8 L 914.6 1956.8 L 914.6 1956.8 Q 914.6 1974.8 899.6 1974.8 L 899.6 1974.8 L 686 1974.8 L 686 1974.8 Q 678.8 1974.8 673.4 1970.6 L 673.4 1970.6 L 673.4 1970.6 Q 668 1966.4 668 1959.2 Z  M 939.8 1958 L 939.8 1958 L 939.8 1958 Q 939.8 1955 940.4 1953.8 L 940.4 1953.8 L 1065.8 1546.4 L 1065.8 1546.4 Q 1070 1532.6 1089.2 1532.6 L 1089.2 1532.6 L 1089.2 1532.6 Q 1108.4 1532.6 1113.2 1546.4 L 1113.2 1546.4 L 1238 1953.8 L 1238 1953.8 Q 1238 1954.4 1238.3 1955.6 L 1238.3 1955.6 L 1238.3 1955.6 Q 1238.6 1956.8 1238.6 1957.4 L 1238.6 1957.4 L 1238.6 1957.4 Q 1238.6 1964.6 1230.8 1969.7 L 1230.8 1969.7 L 1230.8 1969.7 Q 1223 1974.8 1214.6 1974.8 L 1214.6 1974.8 L 1214.6 1974.8 Q 1203.2 1974.8 1199.6 1964.6 L 1199.6 1964.6 L 1172 1872.2 L 1006.04 1872.2 L 978.2 1964.6 L 978.2 1964.6 Q 975.8 1974.8 962.6 1974.8 L 962.6 1974.8 L 962.6 1974.8 Q 954.2 1974.8 947 1970 L 947 1970 L 947 1970 Q 939.8 1965.2 939.8 1958 Z  M 1089.2 1596.2 L 1016.345 1838 L 1161.74 1838 L 1089.2 1596.2 L 1089.2 1596.2 Z  M 1260.2 1554.8 L 1260.2 1554.8 L 1260.2 1554.8 Q 1260.2 1547.6 1264.1 1541.9 L 1264.1 1541.9 L 1264.1 1541.9 Q 1268 1536.2 1275.2 1536.2 L 1275.2 1536.2 L 1515.8 1536.2 L 1515.8 1536.2 Q 1523 1536.2 1526.9 1541.6 L 1526.9 1541.6 L 1526.9 1541.6 Q 1530.8 1547 1530.8 1554.2 L 1530.8 1554.2 L 1530.8 1554.2 Q 1530.8 1562 1526.9 1567.7 L 1526.9 1567.7 L 1526.9 1567.7 Q 1523 1573.4 1515.8 1573.4 L 1515.8 1573.4 L 1415.6 1573.4 L 1415.6 1959.2 L 1415.6 1959.2 Q 1415.6 1966.4 1409.6 1970.6 L 1409.6 1970.6 L 1409.6 1970.6 Q 1403.6 1974.8 1395.8 1974.8 L 1395.8 1974.8 L 1395.8 1974.8 Q 1387.4 1974.8 1381.7 1970.6 L 1381.7 1970.6 L 1381.7 1970.6 Q 1376 1966.4 1376 1959.2 L 1376 1959.2 L 1376 1573.4 L 1275.2 1573.4 L 1275.2 1573.4 Q 1268.6 1573.4 1264.4 1568 L 1264.4 1568 L 1264.4 1568 Q 1260.2 1562.6 1260.2 1554.8 Z  M 1585.4 1959.2 L 1585.4 1959.2 L 1585.4 1550.6 L 1585.4 1550.6 Q 1585.4 1536.2 1605.2 1536.2 L 1605.2 1536.2 L 1605.2 1536.2 Q 1625 1536.2 1625 1550.6 L 1625 1550.6 L 1625 1959.2 L 1625 1959.2 Q 1625 1966.4 1619 1970.6 L 1619 1970.6 L 1619 1970.6 Q 1613 1974.8 1605.2 1974.8 L 1605.2 1974.8 L 1605.2 1974.8 Q 1596.8 1974.8 1591.1 1970.6 L 1591.1 1970.6 L 1591.1 1970.6 Q 1585.4 1966.4 1585.4 1959.2 Z  M 1682.6 1553 L 1682.6 1553 L 1682.6 1553 Q 1682.6 1545.8 1689.8 1541 L 1689.8 1541 L 1689.8 1541 Q 1697 1536.2 1705.4 1536.2 L 1705.4 1536.2 L 1705.4 1536.2 Q 1718.6 1536.2 1721 1546.4 L 1721 1546.4 L 1832 1914.8 L 1942.4 1546.4 L 1942.4 1546.4 Q 1946 1536.2 1957.4 1536.2 L 1957.4 1536.2 L 1957.4 1536.2 Q 1965.8 1536.2 1973.6 1541.3 L 1973.6 1541.3 L 1973.6 1541.3 Q 1981.4 1546.4 1981.4 1553.6 L 1981.4 1553.6 L 1981.4 1553.6 Q 1981.4 1554.2 1981.1 1555.4 L 1981.1 1555.4 L 1981.1 1555.4 Q 1980.8 1556.6 1980.8 1557.2 L 1980.8 1557.2 L 1856 1964 L 1856 1964 Q 1851.8 1978.4 1832 1978.4 L 1832 1978.4 L 1832 1978.4 Q 1812.8 1978.4 1808.6 1964 L 1808.6 1964 L 1683.2 1557.2 L 1683.2 1557.2 Q 1682.6 1556 1682.6 1553 Z  M 2039 1959.2 L 2039 1959.2 L 2039 1551.2 L 2039 1551.2 Q 2039 1544 2044.4 1540.1 L 2044.4 1540.1 L 2044.4 1540.1 Q 2049.8 1536.2 2057 1536.2 L 2057 1536.2 L 2270.6 1536.2 L 2270.6 1536.2 Q 2285.6 1536.2 2285.6 1553.6 L 2285.6 1553.6 L 2285.6 1553.6 Q 2285.6 1561.4 2281.7 1567.1 L 2281.7 1567.1 L 2281.7 1567.1 Q 2277.8 1572.8 2270.6 1572.8 L 2270.6 1572.8 L 2078.6 1572.8 L 2078.6 1737.8 L 2172.8 1737.8 L 2172.8 1737.8 Q 2180 1737.8 2183.9 1742.9 L 2183.9 1742.9 L 2183.9 1742.9 Q 2187.8 1748 2187.8 1755.8 L 2187.8 1755.8 L 2187.8 1755.8 Q 2187.8 1772 2172.8 1772 L 2172.8 1772 L 2078.6 1772 L 2078.6 1938.2 L 2270.6 1938.2 L 2270.6 1938.2 Q 2277.2 1938.2 2281.4 1943.6 L 2281.4 1943.6 L 2281.4 1943.6 Q 2285.6 1949 2285.6 1956.8 L 2285.6 1956.8 L 2285.6 1956.8 Q 2285.6 1974.8 2270.6 1974.8 L 2270.6 1974.8 L 2057 1974.8 L 2057 1974.8 Q 2049.8 1974.8 2044.4 1970.6 L 2044.4 1970.6 L 2044.4 1970.6 Q 2039 1966.4 2039 1959.2 Z " fill-rule="evenodd" fill="rgb(0,0,0)"/></svg>