<?xml version="1.0" standalone="no"?><!-- Generator: Gravit.io --><svg xmlns="http://www.w3.org/2000/svg" xmlns:xlink="http://www.w3.org/1999/xlink" style="isolation:isolate" viewBox="-42.4 -748 1851.6 445.8"><path d=" M -42.4 -321.4 L -42.4 -321.4 L -42.4 -730 L -42.4 -730 Q -42.4 -744.4 -22.6 -744.4 L -22.6 -744.4 L -22.6 -744.4 Q -2.8 -744.4 -2.8 -730 L -2.8 -730 L -2.8 -550.6 L 170.6 -550.6 L 170.6 -730 L 170.6 -730 Q 170.6 -744.4 190.4 -744.4 L 190.4 -744.4 L 190.4 -744.4 Q 210.2 -744.4 210.2 -730 L 210.2 -730 L 210.2 -321.4 L 210.2 -321.4 Q 210.2 -314.2 204.2 -310 L 204.2 -310 L 204.2 -310 Q 198.2 -305.8 190.4 -305.8 L 190.4 -305.8 L 190.4 -305.8 Q 182 -305.8 176.3 -310 L 176.3 -310 L 176.3 -310 Q 170.6 -314.2 170.6 -321.4 L 170.6 -321.4 L 170.6 -516.4 L -2.8 -516.4 L -2.8 -321.4 L -2.8 -321.4 Q -2.8 -314.2 -8.8 -310 L -8.8 -310 L -8.8 -310 Q -14.8 -305.8 -22.6 -305.8 L -22.6 -305.8 L -22.6 -305.8 Q -31 -305.8 -36.7 -310 L -36.7 -310 L -36.7 -310 Q -42.4 -314.2 -42.4 -321.4 Z  M 268.4 -322.6 L 268.4 -322.6 L 268.4 -322.6 Q 268.4 -325.6 269 -326.8 L 269 -326.8 L 394.4 -734.2 L 394.4 -734.2 Q 398.6 -748 417.8 -748 L 417.8 -748 L 417.8 -748 Q 437 -748 441.8 -734.2 L 441.8 -734.2 L 566.6 -326.8 L 566.6 -326.8 Q 566.6 -326.2 566.9 -325 L 566.9 -325 L 566.9 -325 Q 567.2 -323.8 567.2 -323.2 L 567.2 -323.2 L 567.2 -323.2 Q 567.2 -316 559.4 -310.9 L 559.4 -310.9 L 559.4 -310.9 Q 551.6 -305.8 543.2 -305.8 L 543.2 -305.8 L 543.2 -305.8 Q 531.8 -305.8 528.2 -316 L 528.2 -316 L 500.6 -408.4 L 334.64 -408.4 L 306.8 -316 L 306.8 -316 Q 304.4 -305.8 291.2 -305.8 L 291.2 -305.8 L 291.2 -305.8 Q 282.8 -305.8 275.6 -310.6 L 275.6 -310.6 L 275.6 -310.6 Q 268.4 -315.4 268.4 -322.6 Z  M 417.8 -684.4 L 344.945 -442.6 L 490.34 -442.6 L 417.8 -684.4 L 417.8 -684.4 Z  M 620.6 -430.6 L 620.6 -430.6 L 620.6 -616.6 L 620.6 -616.6 Q 620.6 -682 655.7 -713.2 L 655.7 -713.2 L 655.7 -713.2 Q 690.8 -744.4 746.6 -744.4 L 746.6 -744.4 L 746.6 -744.4 Q 803.6 -744.4 836.9 -715.3 L 836.9 -715.3 L 836.9 -715.3 Q 870.2 -686.2 870.2 -644.2 L 870.2 -644.2 L 870.2 -644.2 Q 870.2 -629.8 865.7 -625 L 865.7 -625 L 865.7 -625 Q 861.2 -620.2 850.4 -620.2 L 850.4 -620.2 L 850.4 -620.2 Q 831.8 -620.2 830.6 -635.2 L 830.6 -635.2 L 830.6 -635.2 Q 830 -644.2 828.2 -652.6 L 828.2 -652.6 L 828.2 -652.6 Q 826.4 -661 821 -671.5 L 821 -671.5 L 821 -671.5 Q 815.6 -682 806.9 -689.8 L 806.9 -689.8 L 806.9 -689.8 Q 798.2 -697.6 782.6 -702.7 L 782.6 -702.7 L 782.6 -702.7 Q 767 -707.8 746.6 -707.8 L 746.6 -707.8 L 746.6 -707.8 Q 660.2 -707.8 660.2 -616.6 L 660.2 -616.6 L 660.2 -430.6 L 660.2 -430.6 Q 660.2 -338.8 749 -338.8 L 749 -338.8 L 749 -338.8 Q 774.2 -338.8 791 -345.7 L 791 -345.7 L 791 -345.7 Q 807.8 -352.6 815.6 -365.8 L 815.6 -365.8 L 815.6 -365.8 Q 823.4 -379 826.1 -388.3 L 826.1 -388.3 L 826.1 -388.3 Q 828.8 -397.6 830.6 -412.6 L 830.6 -412.6 L 830.6 -412.6 Q 832.4 -428.2 850.4 -428.2 L 850.4 -428.2 L 850.4 -428.2 Q 861.2 -428.2 865.7 -423.1 L 865.7 -423.1 L 865.7 -423.1 Q 870.2 -418 870.2 -403.6 L 870.2 -403.6 L 870.2 -403.6 Q 870.2 -361 836.3 -331.6 L 836.3 -331.6 L 836.3 -331.6 Q 802.4 -302.2 744.8 -302.2 L 744.8 -302.2 L 744.8 -302.2 Q 689.6 -302.2 655.1 -333.4 L 655.1 -333.4 L 655.1 -333.4 Q 620.6 -364.6 620.6 -430.6 Z  M 939.2 -321.4 L 939.2 -321.4 L 939.2 -730 L 939.2 -730 Q 939.2 -744.4 959 -744.4 L 959 -744.4 L 959 -744.4 Q 978.8 -744.4 978.8 -730 L 978.8 -730 L 978.8 -517.6 L 1152.2 -738.4 L 1152.2 -738.4 Q 1156.4 -744.4 1164.8 -744.4 L 1164.8 -744.4 L 1164.8 -744.4 Q 1172 -744.4 1179.2 -737.8 L 1179.2 -737.8 L 1179.2 -737.8 Q 1186.4 -731.2 1186.4 -724 L 1186.4 -724 L 1186.4 -724 Q 1186.4 -718.6 1183.4 -715 L 1183.4 -715 L 1054.4 -554.8 L 1202 -332.8 L 1202 -332.8 Q 1204.4 -328 1204.4 -325 L 1204.4 -325 L 1204.4 -325 Q 1204.4 -317.2 1197.2 -310.9 L 1197.2 -310.9 L 1197.2 -310.9 Q 1190 -304.6 1181.6 -304.6 L 1181.6 -304.6 L 1181.6 -304.6 Q 1173.2 -304.6 1166.6 -313.6 L 1166.6 -313.6 L 1028 -521.8 L 978.8 -459.4 L 978.8 -321.4 L 978.8 -321.4 Q 978.8 -314.2 972.8 -310 L 972.8 -310 L 972.8 -310 Q 966.8 -305.8 959 -305.8 L 959 -305.8 L 959 -305.8 Q 950.6 -305.8 944.9 -310 L 944.9 -310 L 944.9 -310 Q 939.2 -314.2 939.2 -321.4 Z  M 1252.4 -321.4 L 1252.4 -321.4 L 1252.4 -729.4 L 1252.4 -729.4 Q 1252.4 -736.6 1257.8 -740.5 L 1257.8 -740.5 L 1257.8 -740.5 Q 1263.2 -744.4 1270.4 -744.4 L 1270.4 -744.4 L 1484 -744.4 L 1484 -744.4 Q 1499 -744.4 1499 -727 L 1499 -727 L 1499 -727 Q 1499 -719.2 1495.1 -713.5 L 1495.1 -713.5 L 1495.1 -713.5 Q 1491.2 -707.8 1484 -707.8 L 1484 -707.8 L 1292 -707.8 L 1292 -542.8 L 1386.2 -542.8 L 1386.2 -542.8 Q 1393.4 -542.8 1397.3 -537.7 L 1397.3 -537.7 L 1397.3 -537.7 Q 1401.2 -532.6 1401.2 -524.8 L 1401.2 -524.8 L 1401.2 -524.8 Q 1401.2 -508.6 1386.2 -508.6 L 1386.2 -508.6 L 1292 -508.6 L 1292 -342.4 L 1484 -342.4 L 1484 -342.4 Q 1490.6 -342.4 1494.8 -337 L 1494.8 -337 L 1494.8 -337 Q 1499 -331.6 1499 -323.8 L 1499 -323.8 L 1499 -323.8 Q 1499 -305.8 1484 -305.8 L 1484 -305.8 L 1270.4 -305.8 L 1270.4 -305.8 Q 1263.2 -305.8 1257.8 -310 L 1257.8 -310 L 1257.8 -310 Q 1252.4 -314.2 1252.4 -321.4 Z  M 1557.2 -321.4 L 1557.2 -321.4 L 1557.2 -730 L 1557.2 -730 Q 1557.2 -743.2 1572.2 -744.4 L 1572.2 -744.4 L 1678.4 -744.4 L 1678.4 -744.4 Q 1736.6 -744.4 1772.3 -716.8 L 1772.3 -716.8 L 1772.3 -716.8 Q 1808 -689.2 1808 -626.2 L 1808 -626.2 L 1808 -626.2 Q 1808 -526.6 1714.4 -510.4 L 1714.4 -510.4 L 1806.8 -332.8 L 1806.8 -332.8 Q 1809.2 -329.8 1809.2 -325 L 1809.2 -325 L 1809.2 -325 Q 1809.2 -317.2 1802 -310.9 L 1802 -310.9 L 1802 -310.9 Q 1794.8 -304.6 1786.4 -304.6 L 1786.4 -304.6 L 1786.4 -304.6 Q 1775.6 -304.6 1765.4 -325.6 L 1765.4 -325.6 L 1673 -505.6 L 1596.8 -505.6 L 1596.8 -321.4 L 1596.8 -321.4 Q 1596.8 -314.2 1590.8 -310 L 1590.8 -310 L 1590.8 -310 Q 1584.8 -305.8 1577 -305.8 L 1577 -305.8 L 1577 -305.8 Q 1568.6 -305.8 1562.9 -310 L 1562.9 -310 L 1562.9 -310 Q 1557.2 -314.2 1557.2 -321.4 Z  M 1596.8 -707.8 L 1596.8 -539.8 L 1678.4 -539.8 L 1678.4 -539.8 Q 1768.4 -539.8 1768.4 -624.4 L 1768.4 -624.4 L 1768.4 -624.4 Q 1768.4 -707.8 1678.4 -707.8 L 1678.4 -707.8 L 1596.8 -707.8 L 1596.8 -707.8 Z " fill-rule="evenodd" fill="rgb(0,0,0)"/></svg>