<svg fill="#252525" xmlns="http://www.w3.org/2000/svg" style="isolation:isolate" viewBox="-42.4 -748 1851.6 445.8"><path d="M-42.4-321.4V-730q0-14.4 19.8-14.4T-2.8-730v179.4h173.4V-730q0-14.4 19.8-14.4t19.8 14.4v408.6q0 7.2-6 11.4t-13.8 4.2q-8.4 0-14.1-4.2-5.7-4.2-5.7-11.4v-195H-2.8v195q0 7.2-6 11.4t-13.8 4.2q-8.4 0-14.1-4.2-5.7-4.2-5.7-11.4zm310.8-1.2q0-3 .6-4.2l125.4-407.4q4.2-13.8 23.4-13.8t24 13.8l124.8 407.4q0 .6.3 1.8.3 1.2.3 1.8 0 7.2-7.8 12.3-7.8 5.1-16.2 5.1-11.4 0-15-10.2l-27.6-92.4H334.64L306.8-316q-2.4 10.2-15.6 10.2-8.4 0-15.6-4.8-7.2-4.8-7.2-12zm149.4-361.8l-72.855 241.8H490.34L417.8-684.4zm202.8 253.8v-186q0-65.4 35.1-96.6 35.1-31.2 90.9-31.2 57 0 90.3 29.1t33.3 71.1q0 14.4-4.5 19.2-4.5 4.8-15.3 4.8-18.6 0-19.8-15-.6-9-2.4-17.4-1.8-8.4-7.2-18.9-5.4-10.5-14.1-18.3-8.7-7.8-24.3-12.9-15.6-5.1-36-5.1-86.4 0-86.4 91.2v186q0 91.8 88.8 91.8 25.2 0 42-6.9t24.6-20.1q7.8-13.2 10.5-22.5t4.5-24.3q1.8-15.6 19.8-15.6 10.8 0 15.3 5.1t4.5 19.5q0 42.6-33.9 72t-91.5 29.4q-55.2 0-89.7-31.2t-34.5-97.2zm318.6 109.2V-730q0-14.4 19.8-14.4t19.8 14.4v212.4l173.4-220.8q4.2-6 12.6-6 7.2 0 14.4 6.6t7.2 13.8q0 5.4-3 9l-129 160.2 147.6 222q2.4 4.8 2.4 7.8 0 7.8-7.2 14.1t-15.6 6.3q-8.4 0-15-9L1028-521.8l-49.2 62.4v138q0 7.2-6 11.4t-13.8 4.2q-8.4 0-14.1-4.2-5.7-4.2-5.7-11.4zm313.2 0v-408q0-7.2 5.4-11.1 5.4-3.9 12.6-3.9H1484q15 0 15 17.4 0 7.8-3.9 13.5t-11.1 5.7h-192v165h94.2q7.2 0 11.1 5.1 3.9 5.1 3.9 12.9 0 16.2-15 16.2H1292v166.2h192q6.6 0 10.8 5.4 4.2 5.4 4.2 13.2 0 18-15 18h-213.6q-7.2 0-12.6-4.2-5.4-4.2-5.4-11.4zm304.8 0V-730q0-13.2 15-14.4h106.2q58.2 0 93.9 27.6t35.7 90.6q0 99.6-93.6 115.8l92.4 177.6q2.4 3 2.4 7.8 0 7.8-7.2 14.1t-15.6 6.3q-10.8 0-21-21l-92.4-180h-76.2v184.2q0 7.2-6 11.4t-13.8 4.2q-8.4 0-14.1-4.2-5.7-4.2-5.7-11.4zm39.6-386.4v168h81.6q90 0 90-84.6 0-83.4-90-83.4h-81.6z" fill-rule="evenodd"/></svg>