<svg xmlns="http://www.w3.org/2000/svg" viewBox="0 0 1784 1784">
  <style>
    g {
      fill: #000;
    }
    @media (prefers-color-scheme: dark) {
      g {
        fill: #fff;
      }
    }
  </style>
<g transform="translate(0,1784) scale(0.1,-0.1)">
<path d="M8435 17834 c-711 -53 -1172 -123 -1705 -260 -1433 -367 -2729 -1064
-3805 -2045 -170 -154 -515 -502 -657 -660 -732 -818 -1297 -1746 -1691 -2774
-323 -845 -511 -1727 -567 -2652 -13 -220 -13 -828 0 -1043 99 -1616 598
-3102 1493 -4445 466 -699 1078 -1373 1752 -1930 1317 -1087 2936 -1776 4632
-1969 387 -44 522 -51 1033 -51 511 0 646 7 1033 51 1671 191 3283 869 4582
1928 443 361 894 807 1258 1244 761 914 1341 2000 1687 3157 156 522 264 1075
319 1635 32 320 41 521 41 900 0 379 -9 580 -41 900 -129 1305 -540 2541
-1229 3700 -270 453 -674 994 -1047 1402 -152 165 -490 502 -643 640 -477 431
-1038 831 -1625 1161 -316 177 -828 415 -1185 550 -660 250 -1406 432 -2069
507 -431 48 -513 52 -1021 55 -272 1 -517 1 -545 -1z m810 -849 c1061 -25
2217 -318 3240 -820 795 -391 1496 -895 2141 -1539 673 -673 1184 -1395 1586
-2240 447 -941 697 -1903 768 -2964 13 -198 13 -806 0 -1004 -89 -1322 -465
-2528 -1142 -3662 -463 -773 -1129 -1536 -1855 -2123 -1362 -1101 -3073 -1736
-4800 -1781 -789 -21 -1511 54 -2205 229 -1707 428 -3196 1375 -4319 2745
-786 958 -1355 2130 -1624 3344 -130 587 -185 1109 -185 1750 0 459 19 742 81
1175 180 1263 695 2526 1455 3568 416 570 943 1121 1494 1562 1365 1093 3050
1716 4775 1764 138 4 279 6 315 4 36 -1 160 -5 275 -8z"/>
<path d="M10731 12533 c-497 -1264 -905 -2299 -906 -2301 -3 -4 -1499 -221
-1501 -218 -1 0 -504 1057 -1119 2349 -615 1291 -1122 2347 -1126 2347 -3 0
-9 -12 -11 -27 -7 -41 -1091 -5147 -1094 -5151 -1 -2 -491 -74 -1088 -160
-889 -129 -1086 -160 -1086 -172 0 -8 25 -180 57 -382 l58 -368 25 0 c14 0
437 60 940 134 503 73 916 132 918 130 2 -1 -17 -98 -42 -216 -391 -1838 -745
-3511 -748 -3543 -8 -61 9 -160 36 -213 35 -68 101 -131 176 -166 60 -29 73
-31 175 -31 105 0 114 2 177 33 84 41 142 99 179 177 22 47 117 483 450 2065
232 1103 424 2008 428 2011 3 4 497 77 1096 163 600 86 1102 159 1116 162 25
5 37 -19 669 -1351 354 -745 646 -1355 650 -1355 3 0 276 686 605 1524 328
838 601 1529 605 1536 7 11 1685 259 1694 249 2 -2 192 -785 421 -1739 852
-3547 978 -4066 995 -4100 24 -47 94 -116 141 -141 202 -103 442 -28 548 171
60 111 61 102 -94 750 -120 507 -855 3573 -1136 4742 -56 235 -101 429 -98
432 2 2 421 64 932 137 757 109 927 137 927 149 0 8 -25 180 -57 383 -54 343
-59 367 -78 367 -11 0 -444 -61 -963 -136 -519 -75 -945 -134 -947 -132 -3 2
-231 946 -507 2096 -276 1151 -505 2092 -508 2092 -4 0 -413 -1034 -909 -2297z
m-3221 -2628 c0 -10 -1698 -260 -1707 -251 -3 3 524 2531 554 2654 4 17 155
-293 579 -1185 315 -664 574 -1213 574 -1218z m4164 1492 c114 -478 206 -869
204 -871 -7 -5 -1158 -168 -1166 -165 -5 2 160 435 366 961 207 527 379 954
382 950 4 -4 100 -398 214 -875z m-2184 -2013 c0 -7 -379 -974 -387 -987 -4
-7 -404 818 -418 863 -5 14 40 23 372 72 389 57 433 62 433 52z"/>
</g>
</svg>
