<?xml version="1.0" standalone="no"?>
<!DOCTYPE svg PUBLIC "-//W3C//DTD SVG 20010904//EN"
 "http://www.w3.org/TR/2001/REC-SVG-20010904/DTD/svg10.dtd">
<svg version="1.0" xmlns="http://www.w3.org/2000/svg"
 viewBox="0 0 1832.000000 1162.000000"
 preserveAspectRatio="xMidYMid meet">

<g transform="translate(0.000000,1162.000000) scale(0.100000,-0.100000)"
fill="#000000" stroke="none">
<path d="M2107 11167 c-47 -15 -102 -59 -122 -96 -8 -16 -319 -1018 -691
-2227 -749 -2435 -701 -2260 -634 -2329 75 -78 232 -106 312 -57 20 12 39 30
43 40 4 9 76 244 159 522 l151 505 892 3 892 2 22 -72 c202 -682 281 -936 297
-957 66 -88 198 -93 318 -10 51 35 88 104 78 146 -5 24 -1055 3460 -1279 4186
-80 262 -96 291 -172 328 -57 28 -204 37 -266 16z m880 -3234 l6 -33 -777 0
c-427 0 -776 2 -776 5 0 6 768 2543 776 2565 5 14 757 -2460 771 -2537z"/>
<path d="M5580 11165 c-53 -17 -93 -52 -119 -103 -10 -20 -323 -1028 -695
-2238 -663 -2155 -677 -2202 -666 -2244 23 -86 120 -144 240 -145 84 0 118 15
148 65 10 16 85 254 167 529 l149 501 892 0 891 0 142 -477 c78 -263 151 -500
163 -526 13 -29 34 -56 55 -68 122 -76 353 26 353 156 0 56 -1334 4407 -1368
4464 -41 67 -101 94 -216 98 -59 2 -107 -2 -136 -12z m509 -1971 c209 -699
381 -1276 381 -1283 0 -8 -205 -11 -776 -11 l-776 0 5 23 c29 114 773 2554
778 2549 3 -4 178 -579 388 -1278z"/>
<path d="M8015 11126 c-17 -7 -43 -28 -58 -45 l-27 -33 0 -2255 0 -2256 43
-42 c28 -26 61 -46 91 -55 93 -26 211 7 260 73 21 28 21 34 26 1045 l5 1017
406 3 406 2 509 -992 c280 -546 527 -1019 548 -1051 77 -115 155 -143 261 -93
56 26 118 86 134 129 30 78 42 51 -494 1082 -277 533 -503 970 -501 972 1 2
28 8 60 14 91 17 264 77 358 126 383 197 578 569 578 1103 0 474 -146 817
-428 1009 -175 118 -333 180 -612 238 -106 22 -1518 31 -1565 9z m1471 -400
c496 -86 722 -386 701 -931 -6 -157 -23 -248 -67 -363 -92 -238 -271 -382
-565 -454 -86 -20 -116 -22 -647 -25 l-558 -4 0 894 c0 491 3 897 8 901 4 5
239 6 522 3 406 -4 534 -8 606 -21z"/>
<path d="M12425 11134 c-245 -36 -351 -66 -510 -144 -345 -169 -537 -448 -612
-885 -15 -89 -17 -224 -21 -1240 -4 -1192 0 -1320 39 -1517 102 -513 432 -826
979 -930 97 -19 149 -22 330 -22 193 0 228 3 341 27 512 108 814 381 934 844
54 208 55 228 55 1494 0 759 -4 1204 -11 1267 -57 521 -297 849 -744 1017
-173 65 -298 86 -540 90 -115 2 -223 1 -240 -1z m485 -419 c164 -38 274 -97
381 -204 87 -87 135 -167 179 -298 61 -185 61 -172 57 -1491 -3 -1110 -4
-1202 -21 -1272 -90 -376 -276 -563 -641 -642 -83 -17 -389 -17 -480 1 -192
38 -318 102 -435 220 -128 129 -205 318 -230 569 -8 73 -10 465 -8 1247 4
1140 4 1140 27 1239 81 357 267 555 597 632 146 34 424 33 574 -1z"/>
<path d="M14995 11127 c-45 -18 -72 -40 -90 -73 -13 -26 -15 -279 -15 -2262 0
-2466 -6 -2264 64 -2317 99 -75 278 -48 344 53 16 24 17 141 22 1818 l5 1792
889 -1732 c490 -952 905 -1758 924 -1790 40 -68 104 -136 153 -162 23 -13 56
-19 104 -19 83 0 145 29 182 84 l23 34 0 2242 0 2242 -23 34 c-34 51 -100 72
-208 67 -94 -4 -136 -22 -173 -71 l-21 -28 -5 -1798 -5 -1798 -870 1716 c-478
944 -892 1748 -918 1788 -54 81 -123 147 -182 174 -46 21 -152 24 -200 6z"/>
<path d="M3467 4420 c-49 -13 -85 -37 -101 -69 -24 -47 -996 -3218 -996 -3249
0 -22 10 -41 35 -66 73 -73 215 -75 253 -4 7 12 61 185 121 383 l107 360 646
3 645 2 109 -366 c121 -406 128 -421 201 -431 91 -12 213 57 213 121 0 40
-978 3225 -1000 3256 -11 15 -35 35 -53 43 -43 21 -131 29 -180 17z m353
-1447 c148 -497 270 -907 270 -913 0 -7 -187 -10 -561 -10 -445 0 -560 3 -557
13 3 6 130 427 284 935 205 678 281 917 286 900 4 -13 129 -429 278 -925z"/>
<path d="M5920 4390 c-381 -49 -645 -250 -749 -569 -56 -172 -56 -171 -56
-1146 0 -995 -1 -984 65 -1174 96 -276 319 -460 633 -525 42 -9 87 -16 101
-16 57 0 56 5 56 -216 l0 -204 28 -31 c53 -59 161 -48 197 21 12 23 15 69 15
224 0 224 -16 196 120 217 185 29 350 110 475 234 120 120 184 243 228 439 22
101 22 104 22 1036 l0 935 -27 111 c-65 275 -201 451 -433 565 -143 69 -270
98 -460 104 -82 2 -179 0 -215 -5z m389 -305 c192 -47 329 -171 392 -357 46
-137 49 -203 49 -1043 0 -465 -4 -825 -10 -875 -21 -179 -86 -320 -190 -413
-77 -70 -151 -105 -277 -131 l-63 -14 0 190 c0 147 -3 195 -15 217 -34 67
-176 67 -210 0 -12 -22 -15 -70 -15 -218 l0 -190 -37 6 c-70 10 -198 59 -256
97 -106 71 -176 173 -219 321 l-23 80 0 920 c0 1028 -3 975 72 1133 67 142
215 252 378 281 33 6 71 13 85 15 50 9 276 -4 339 -19z"/>
<path d="M7793 4390 c-17 -6 -41 -22 -53 -37 l-21 -26 4 -1306 c3 -1408 1
-1332 53 -1496 91 -281 317 -473 645 -547 150 -33 408 -33 558 0 405 91 632
340 690 757 7 51 11 497 11 1334 0 1254 0 1258 -21 1284 -51 66 -242 58 -276
-11 -4 -9 -10 -591 -13 -1292 l-5 -1275 -23 -80 c-50 -180 -147 -307 -287
-377 -200 -100 -493 -103 -694 -8 -154 74 -250 196 -303 385 l-23 80 -5 1275
c-3 701 -9 1283 -13 1292 -16 31 -57 49 -125 53 -37 3 -81 0 -99 -5z"/>
<path d="M10453 4390 c-17 -6 -41 -22 -52 -36 l-21 -27 0 -1636 c1 -1283 3
-1640 13 -1652 61 -81 228 -78 278 5 18 30 19 84 19 1648 0 1232 -3 1623 -12
1643 -7 15 -25 34 -42 42 -37 19 -139 26 -183 13z"/>
<path d="M11483 4394 c-12 -3 -36 -18 -52 -33 -23 -21 -30 -39 -36 -82 -3 -30
-5 -765 -3 -1634 3 -1746 -3 -1604 69 -1644 53 -30 130 -28 184 4 24 13 47 32
51 42 5 10 11 603 14 1317 l5 1299 644 -1254 c355 -690 656 -1272 669 -1294
31 -52 80 -103 114 -121 75 -39 198 3 218 74 8 26 10 518 8 1650 l-3 1614 -32
28 c-59 53 -187 53 -246 0 l-32 -28 -5 -1305 -5 -1305 -638 1257 c-350 691
-654 1278 -675 1306 -55 73 -110 108 -174 111 -29 1 -63 0 -75 -2z"/>
<path d="M14845 4391 c-298 -35 -546 -182 -674 -399 -22 -37 -54 -108 -71
-159 -60 -182 -61 -201 -57 -1207 3 -888 4 -913 24 -997 64 -259 178 -422 379
-540 166 -98 315 -134 564 -134 147 0 192 4 278 23 341 76 572 288 651 595 44
172 46 210 46 1107 0 898 -1 925 -46 1097 -83 317 -314 523 -669 598 -88 19
-325 27 -425 16z m398 -310 c164 -43 275 -130 345 -270 79 -158 77 -121 77
-1136 0 -1013 3 -967 -77 -1131 -68 -142 -186 -234 -358 -281 -92 -25 -348
-25 -440 1 -112 31 -189 74 -261 145 -76 76 -118 154 -151 281 l-23 85 0 895
c0 1007 -2 974 75 1136 59 123 172 221 304 264 137 44 363 49 509 11z"/>
</g>
</svg>
