<?xml version="1.0" standalone="no"?>
<!DOCTYPE svg PUBLIC "-//W3C//DTD SVG 20010904//EN"
 "http://www.w3.org/TR/2001/REC-SVG-20010904/DTD/svg10.dtd">
<svg version="1.0" xmlns="http://www.w3.org/2000/svg"
 width="579.000000pt" height="579.000000pt" viewBox="0 0 579.000000 579.000000"
 preserveAspectRatio="xMidYMid meet">
<metadata>
Created by potrace 1.13, written by Peter Selinger 2001-2015
</metadata>
<g transform="translate(0.000000,579.000000) scale(0.100000,-0.100000)"
stroke="none">
<path d="M2350 5094 c-14 -2 -65 -9 -115 -15 -371 -45 -792 -235 -1106 -498
-535 -447 -832 -1164 -770 -1856 96 -1058 899 -1883 1954 -2006 135 -16 482
-7 607 16 491 88 898 304 1235 656 314 327 511 729 582 1189 27 176 24 485 -6
654 -12 70 -25 134 -28 142 -4 12 62 14 407 16 l413 3 -146 120 c-80 66 -146
122 -146 125 0 3 66 55 146 115 l146 110 -499 3 -499 2 -34 66 c-91 176 -243
375 -412 540 -348 339 -776 547 -1252 609 -106 13 -405 19 -477 9z m2185
-2071 c18 -306 -39 -623 -159 -895 l-26 -58 -1793 0 -1794 0 -36 78 c-107 235
-167 569 -152 852 4 74 9 138 12 142 2 5 890 8 1973 8 l1968 0 7 -127z"/>
<path d="M1801 2920 c-103 -21 -187 -86 -238 -182 -25 -47 -28 -64 -28 -148 0
-89 2 -99 34 -158 74 -136 226 -205 369 -168 105 27 191 98 236 195 30 66 30
197 -1 263 -64 140 -228 227 -372 198z"/>
<path d="M3183 2920 c-122 -25 -221 -118 -257 -240 -21 -71 -20 -114 4 -193
60 -194 289 -289 474 -195 62 32 132 110 156 175 30 79 25 196 -10 268 -64
133 -226 214 -367 185z"/>
</g>
</svg>
